<svg height="2.5em" viewBox="0 0 40 40" width="2.5em" xmlns="http://www.w3.org/2000/svg">
    <g fill="none" fill-rule="evenodd">
        <circle cx="20" cy="20" fill="#af9b61" fill-rule="nonzero" r="20"/>
        <path d="m15.9951362 18.2043317c-2.2655637 0-4.1021659-1.8366022-4.1021659-4.1021658 0-2.2655637 1.8366022-4.1021659 4.1021659-4.1021659 2.2655635 0 4.1021658 1.8366022 4.1021658 4.1021659 0 2.2655636-1.8366023 4.1021658-4.1021658 4.1021658zm0-1.3916337c1.4969855 0 2.7105321-1.2135466 2.7105321-2.7105321 0-1.4969857-1.2135466-2.7105322-2.7105321-2.7105322-1.4969856 0-2.7105322 1.2135465-2.7105322 2.7105322 0 1.4969855 1.2135466 2.7105321 2.7105322 2.7105321zm10.7056683.4183911c-1.7280566 0-3.1289233-1.4008667-3.1289233-3.1289232 0-1.7280567 1.4008667-3.1289233 3.1289233-3.1289233 1.7280565 0 3.1289232 1.4008666 3.1289232 3.1289233 0 1.7280565-1.4008667 3.1289232-3.1289232 3.1289232zm0-1.3916337c.9594785 0 1.7372895-.777811 1.7372895-1.7372895 0-.9594786-.777811-1.7372896-1.7372895-1.7372896-.9594786 0-1.7372896.777811-1.7372896 1.7372896 0 .9594785.777811 1.7372895 1.7372896 1.7372895zm-10.2190471 4.8662129c4.6652138 0 8.4817575 3.3394757 8.4817575 7.5085149 0 .384289-.3115279.6958168-.6958169.6958168h-15.57188115c-.38428903 0-.69581685-.3115278-.69581685-.6958168 0-4.1690392 3.8165437-7.5085149 8.4817574-7.5085149zm-7.04448586 6.812698h14.08897186c-.4002665-3.0335114-3.3852461-5.4210643-7.044486-5.4210643-3.6592398 0-6.64421941 2.3875529-7.04448586 5.4210643zm17.42528736-3.8929703h4.3791933c-.3917292-1.7066509-1.5471995-2.5013366-3.6173998-2.5013371-1.0326817-.0013444-2.417288.3857181-2.8513371.8442402-.2641835.2790791-.7045849.2911543-.9836639.0269708-.279079-.2641836-.2911542-.704585-.0269707-.983664.7546391-.797188 2.4852467-1.2809742 3.8628775-1.279195 3.0635331 0 4.8445176 1.5656708 5.1211744 4.5240136.0381644.4080983-.2829151.7606052-.692794.7606052h-5.1910797c-.384289 0-.6958168-.3115278-.6958168-.6958169 0-.384289.3115278-.6958168.6958168-.6958168z" fill="#ffffff"/>
    </g>
</svg>
